<?xml version="1.0" encoding="utf-8"?>
<!-- Generator: Adobe Illustrator 25.2.1, SVG Export Plug-In . SVG Version: 6.00 Build 0)  -->
<svg version="1.1" id="Ebene_1" xmlns="http://www.w3.org/2000/svg" xmlns:xlink="http://www.w3.org/1999/xlink" x="0px" y="0px"
	 viewBox="0 0 24 17" style="enable-background:new 0 0 24 17;" xml:space="preserve">
<style type="text/css">
	.st0{fill:#444444;}
</style>
<path class="st0" d="M17.9,15H6v-0.6c0-1.4,0.1-2.1,1.6-2.5c1.6-0.4,3.3-0.7,2.5-2.4C7.8,4.9,9.5,2.2,12,2.2s4.2,2.6,1.9,7.4
	c-0.7,1.6,0.9,2,2.5,2.4c1.5,0.4,1.6,1.1,1.6,2.5C17.9,14.3,17.9,15,17.9,15z M22.8,12.6c-1.2-0.4-2.5-0.6-1.9-1.9
	c1.7-3.6,0.5-5.6-1.4-5.6c-1.2,0-2.2,0.9-2.2,2.5c0,4.2,2.2,2,2.2,7.3H24v-0.5C23.9,13.4,23.8,12.8,22.8,12.6z M0.1,15h4.5
	c0-5.3,2.2-3,2.2-7.3c0-1.6-1-2.5-2.2-2.5c-1.9,0-3.1,2-1.4,5.6c0.6,1.2-0.6,1.5-1.9,1.9c-1.1,0.2-1.2,0.9-1.2,1.9V15z"/>
</svg>
