<?xml version="1.0" encoding="utf-8"?>
<!-- Generator: Adobe Illustrator 24.0.2, SVG Export Plug-In . SVG Version: 6.00 Build 0)  -->
<svg version="1.1" id="DAf_x5F_Logo" xmlns="http://www.w3.org/2000/svg" xmlns:xlink="http://www.w3.org/1999/xlink" x="0px"
	 y="0px" viewBox="0 0 230 230.6" style="enable-background:new 0 0 230 230.6;" xml:space="preserve">
<style type="text/css">
	.st0{fill:#FFE900;}
</style>
<circle id="gelb" class="st0" cx="115" cy="114.9" r="115"/>
<path id="schwarz" d="M134.4,181.1c-3.1,0-6.2-0.1-9.3-0.4h0c-1.1-0.1-2.1-0.2-3.2-0.4h0l0,0c-3.1-0.5-4.6-1.1-6.7-2.6
	c-2.3-1.8-4.4-4.5-6.4-8.1H83.9l-3.7,9.9H59.3l27.9-65.4h48.8c21.4,0,34.6-13,34.6-32.7v-0.1c0-19.5-13.2-32.6-34.6-32.6h-115
	C7.7,67.4,0,90.2,0,114.9c0,63.5,51.5,115,115,115c38.8,0,73.1-19.2,94-48.7L134.4,181.1z M125.4,64.8h9.8c8.8,0,15.1,5.9,15.1,16.6
	c0,10.7-6.3,16.6-15.1,16.6h-9.8V64.8z"/>
<polygon id="Dreieck" points="106.8,160.1 99.8,140.7 92.5,160.1 "/>
</svg>
