<?xml version="1.0" encoding="utf-8"?>
<!-- Generator: Adobe Illustrator 25.2.3, SVG Export Plug-In . SVG Version: 6.00 Build 0)  -->
<svg version="1.1" id="Ebene_1" xmlns="http://www.w3.org/2000/svg" xmlns:xlink="http://www.w3.org/1999/xlink" x="0px" y="0px"
	 viewBox="0 0 16 16" style="enable-background:new 0 0 16 16;" xml:space="preserve">
<style type="text/css">
	.st0{fill:#FEEA01;}
</style>
<g>
	<path class="st0" d="M8,4.4C6,4.4,4.4,6,4.4,8S6,11.6,8,11.6S11.6,10,11.6,8S10,4.4,8,4.4z M8,10.3c-1.3,0-2.3-1-2.3-2.3
		s1-2.3,2.3-2.3s2.3,1,2.3,2.3S9.3,10.3,8,10.3z"/>
	<path class="st0" d="M10.9,1c-0.8,0-1,0-2.9,0S5.8,1,5.1,1C2.5,1.1,1.1,2.6,1,5.1c0,0.8,0,1,0,2.9s0,2.2,0,2.9
		c0.1,2.6,1.6,4,4.1,4.1c0.8,0,1,0,2.9,0s2.2,0,2.9,0c2.6-0.1,4-1.6,4.1-4.1c0-0.8,0-1,0-2.9s0-2.2,0-2.9C14.9,2.5,13.4,1.1,10.9,1z
		 M13.7,8c0,1.8,0,2.1,0,2.8c-0.1,1.9-1,2.8-2.9,2.9c-0.7,0-0.9,0-2.8,0c-1.8,0-2.1,0-2.8,0c-1.9-0.1-2.8-1-2.9-2.9c0-0.7,0-1,0-2.8
		s0-2.1,0-2.8c0.1-1.9,1-2.8,2.9-2.9c0.7,0,1,0,2.8,0s2.1,0,2.8,0c1.9,0.1,2.8,1,2.9,2.9C13.7,5.9,13.7,6.2,13.7,8z"/>
	<path class="st0" d="M11.7,3.5c-0.4,0-0.8,0.3-0.8,0.8c0,0.4,0.3,0.8,0.8,0.8c0.5,0,0.9-0.4,0.8-0.8C12.5,3.9,12.2,3.5,11.7,3.5z"
		/>
</g>
</svg>
