<?xml version="1.0" encoding="utf-8"?>
<!-- Generator: Adobe Illustrator 25.0.1, SVG Export Plug-In . SVG Version: 6.00 Build 0)  -->
<svg version="1.1" id="Ebene_1" xmlns="http://www.w3.org/2000/svg" xmlns:xlink="http://www.w3.org/1999/xlink" x="0px" y="0px"
	 viewBox="0 0 1133.9 1133.9" style="enable-background:new 0 0 1133.9 1133.9;" xml:space="preserve">
<style type="text/css">
	.st0{fill:#00A6DC;}
	.st1{fill:#FFFFFF;}
	.st2{fill:#FF1903;}
</style>
<g id="Ebene_1_1_">
	<g id="BG">
	</g>
	<g>
		<circle class="st0" cx="566.9" cy="566.9" r="561.5"/>
		<polygon class="st0" points="0,0 1133.9,0 1133.9,0 0,0 0,1133.9 0,1133.9 		"/>
	</g>
	<g>
		<rect x="418.1" y="0" class="st1" width="277.5" height="0"/>
		<polygon class="st1" points="0,164.8 0,164.8 0,279.7 0,279.7 		"/>
		<path class="st1" d="M174.9,968.9l243.2-172.3v311.8c47.4,13,97.3,20,148.8,20c44.3,0,87.3-5.1,128.6-14.8V782L957,970.8
			c52.5-50.7,95.2-111.6,124.8-179.5L945,692.5h169.3c9.2-40.4,14.1-82.4,14.1-125.6c0-51.2-6.9-100.8-19.7-147.9H941l132.1-95.4
			C1041,257,996.2,197.7,941.7,148.8L695.5,326.6V20.2c-41.3-9.7-84.4-14.8-128.6-14.8c-51.5,0-101.4,7-148.8,20V312L192.1,148.8
			C137.7,197.7,92.8,257,60.8,323.6L192.9,419H25.1C12.3,466.2,5.4,515.7,5.4,566.9c0,43.2,4.9,85.2,14.1,125.6h169.4L52.1,791.4
			C81.3,858.4,123.3,918.6,174.9,968.9z"/>
		<rect x="0" y="419" class="st1" width="0" height="273.5"/>
		<polygon class="st1" points="0,829 0,829 0,969.5 0,969.5 		"/>
	</g>
	<g>
		<rect x="473.2" y="0" class="st2" width="171.2" height="0"/>
		<path class="st2" d="M153.2,946.6l319.9-226v400.1c30.5,5.1,61.8,7.8,93.8,7.8c26.3,0,52.1-1.8,77.4-5.3V708.3L981,946.1
			c25.3-27.6,47.9-57.8,67.3-90.1L742,639.6h381.8c3.1-23.8,4.7-48,4.7-72.7c0-33.6-3-66.5-8.6-98.5H738.9l297.2-210
			c-20.8-31.5-44.6-60.8-71.1-87.4L644.4,397.5V10.7c-25.3-3.5-51.2-5.3-77.4-5.3c-31.9,0-63.3,2.7-93.8,7.8v372.1l-304-214.7
			c-26.5,26.6-50.4,55.9-71.2,87.4L396,468.4H14.1c-5.7,32-8.6,64.9-8.6,98.5c0,24.6,1.6,48.9,4.7,72.7h382.7l-307,216.9
			C105.3,888.8,127.9,919,153.2,946.6z"/>
		<polygon class="st2" points="0,164.4 0,164.4 0,188.7 0,188.7 		"/>
		<polygon class="st2" points="0,917.1 0,917.2 0,969.5 0,969.5 		"/>
		<rect x="0" y="468.4" class="st2" width="0" height="171.2"/>
	</g>
</g>
</svg>
