<?xml version="1.0" encoding="utf-8"?>
<!-- Generator: Adobe Illustrator 25.0.1, SVG Export Plug-In . SVG Version: 6.00 Build 0)  -->
<svg version="1.1" id="Ebene_1" xmlns="http://www.w3.org/2000/svg" xmlns:xlink="http://www.w3.org/1999/xlink" x="0px" y="0px"
	 viewBox="0 0 1133.9 1133.9" style="enable-background:new 0 0 1133.9 1133.9;" xml:space="preserve">
<style type="text/css">
	.st0{fill:#FEEA01;}
	.st1{fill:#FF1903;}
</style>
<g id="BG_1_">
</g>
<path class="st0" d="M566.9,1128.4c244.8,0,453-156.7,529.8-375.2H37.1C113.9,971.8,322.1,1128.4,566.9,1128.4z"/>
<path class="st1" d="M1127,607.3v-80.7c-3.8-53.1-14.9-104.2-32.4-152.2H39.3c-21.9,60-33.9,124.9-33.9,192.5
	c0,65.3,11.2,128,31.7,186.3h1059.7C1113,707.1,1123.4,658.1,1127,607.3z"/>
<g>
	<path d="M566.9,5.4c-242.5,0-449,153.7-527.6,369h1055.2C1016,159.1,809.4,5.4,566.9,5.4z"/>
	<rect x="0" y="0" width="1127" height="0"/>
</g>
</svg>
